<svg width="18" height="18" viewBox="0 0 18 18" fill="none" xmlns="http://www.w3.org/2000/svg">
<path d="M5.36255 15.825C5.17505 15.6375 5.0813 15.4155 5.0813 15.159C5.0813 14.903 5.17505 14.6813 5.36255 14.4938L10.8563 9L5.3438 3.4875C5.1688 3.3125 5.0813 3.09375 5.0813 2.83125C5.0813 2.56875 5.17505 2.34375 5.36255 2.15625C5.55005 1.96875 5.77205 1.875 6.02855 1.875C6.28455 1.875 6.5063 1.96875 6.6938 2.15625L12.9938 8.475C13.0688 8.55 13.122 8.63125 13.1535 8.71875C13.1845 8.80625 13.2 8.9 13.2 9C13.2 9.1 13.1845 9.19375 13.1535 9.28125C13.122 9.36875 13.0688 9.45 12.9938 9.525L6.67505 15.8438C6.50005 16.0188 6.28455 16.1063 6.02855 16.1063C5.77205 16.1063 5.55005 16.0125 5.36255 15.825Z" fill="black"/>
</svg>
