<svg width="18" height="18" viewBox="0 0 18 18" fill="none" xmlns="http://www.w3.org/2000/svg">
<path d="M12.6375 2.175C12.825 2.3625 12.9187 2.5845 12.9187 2.841C12.9187 3.097 12.825 3.31875 12.6375 3.50625L7.1437 9L12.6562 14.5125C12.8312 14.6875 12.9187 14.9062 12.9187 15.1687C12.9187 15.4312 12.825 15.6562 12.6375 15.8438C12.45 16.0312 12.228 16.125 11.9715 16.125C11.7155 16.125 11.4937 16.0312 11.3062 15.8438L5.0062 9.525C4.9312 9.45 4.87795 9.36875 4.84645 9.28125C4.81545 9.19375 4.79995 9.1 4.79995 9C4.79995 8.9 4.81545 8.80625 4.84645 8.71875C4.87795 8.63125 4.9312 8.55 5.0062 8.475L11.325 2.15625C11.5 1.98125 11.7155 1.89375 11.9715 1.89375C12.228 1.89375 12.45 1.9875 12.6375 2.175Z" fill="black"/>
</svg>
