<svg width="18" height="18" viewBox="0 0 18 18" fill="none" xmlns="http://www.w3.org/2000/svg">
<path d="M16.3057 8H1.69417V15.7086H1C0.447716 15.7086 0 16.1563 0 16.7086V17.9853H18V16.7086C18 16.1563 17.5523 15.7086 17 15.7086H16.3058L16.3057 8ZM5.51772 15.7086H3.36997V9.77177C3.36997 9.11274 3.85171 8.57637 4.44392 8.57637C5.03598 8.57637 5.51772 9.11259 5.51772 9.77177V15.7086ZM10.0737 15.7086H7.92613V9.77177C7.92613 9.11274 8.40786 8.57637 8.99993 8.57637C9.59186 8.57637 10.0737 9.11259 10.0737 9.77177V15.7086ZM14.5801 15.7086H12.4324V9.77177C12.4324 9.11274 12.9141 8.57637 13.5063 8.57637C14.0982 8.57637 14.58 9.11259 14.58 9.77177L14.5801 15.7086Z" fill="#38B7F1"/>
<path d="M17.1433 6.37372V5.71796L8.9872 0L0.856539 5.69928V6.37372H0.306702V7.32443H17.6931V6.37372H17.1433ZM8.99992 2.47935C9.73406 2.47935 10.3293 3.1418 10.3293 3.95912C10.3293 4.77643 9.73406 5.43888 8.99992 5.43888C8.26578 5.43888 7.6705 4.77643 7.6705 3.95912C7.6705 3.1418 8.26578 2.47935 8.99992 2.47935Z" fill="#38B7F1"/>
</svg>
