<svg width="18" height="18" viewBox="0 0 18 18" fill="none" xmlns="http://www.w3.org/2000/svg">
<g clip-path="url(#clip0_91_8)">
<mask id="mask0_91_8" style="mask-type:luminance" maskUnits="userSpaceOnUse" x="0" y="0" width="18" height="18">
<path d="M18 0H0V18H18V0Z" fill="white"/>
</mask>
<g mask="url(#mask0_91_8)">
<path d="M14.0624 18C13.6264 17.9252 13.1815 17.8723 12.7543 17.7667C11.6708 17.4981 10.6754 17.0226 9.72845 16.4415C7.97108 15.3673 6.43833 14.0201 5.00248 12.5585C3.94541 11.4842 2.95441 10.3528 2.09995 9.10687C1.28072 7.91378 0.593631 6.65465 0.228062 5.24143C-0.0273965 4.24646 -0.0978676 3.24708 0.170804 2.2389C0.298533 1.75902 0.567204 1.376 0.981222 1.11185C1.51856 0.768453 2.06912 0.442664 2.61968 0.125681C3.02048 -0.107653 3.4389 -0.0107973 3.69876 0.372224C4.5312 1.60934 5.35924 2.85085 6.18287 4.09677C6.44714 4.49741 6.36786 4.90684 5.98027 5.21502C5.55304 5.55402 5.1214 5.88421 4.68976 6.2188C4.28015 6.53578 4.21849 6.89679 4.45633 7.35906C5.15223 8.71944 6.15645 9.83769 7.22673 10.8987C7.9931 11.6603 8.7815 12.3956 9.69322 12.9811C10.028 13.1968 10.3759 13.3905 10.7239 13.5798C11.0938 13.7824 11.477 13.6943 11.7413 13.3597C12.0804 12.9327 12.4108 12.5012 12.7455 12.0698C13.1023 11.6075 13.4987 11.5415 13.9787 11.8629C15.1283 12.6289 16.2779 13.3993 17.4318 14.1566C17.6829 14.3195 17.8987 14.5 18 14.795C18 14.9006 18 15.0063 18 15.1119C17.956 15.2044 17.9207 15.3056 17.8679 15.3937C17.5596 15.9176 17.2468 16.4415 16.9297 16.9566C16.6346 17.4321 16.2118 17.7314 15.6612 17.8503C15.3882 17.9075 15.1107 17.9472 14.8332 17.9956C14.5777 18 14.3179 18 14.0624 18Z" fill="#F76A03"/>
</g>
</g>
<defs>
<clipPath id="clip0_91_8">
<rect width="18" height="18" fill="white"/>
</clipPath>
</defs>
</svg>
