<svg width="17" height="17" viewBox="0 0 17 17" fill="none" xmlns="http://www.w3.org/2000/svg">
<g clip-path="url(#clip0_19_61158)">
<mask id="mask0_19_61158" style="mask-type:luminance" maskUnits="userSpaceOnUse" x="0" y="0" width="17" height="17">
<path d="M17 0H0V17H17V0Z" fill="white"/>
</mask>
<g mask="url(#mask0_19_61158)">
<path d="M6.92745 11.3333L3.7793 8.52004L4.88115 7.53541L6.92745 9.36401L12.1219 4.72217L13.2238 5.7068L6.92745 11.3333Z" fill="white"/>
<path d="M0.0765948 9.63385C0.365525 11.7805 1.46305 13.7358 3.14501 15.1006C4.82698 16.4653 6.96649 17.1364 9.12659 16.9769C11.2867 16.8174 13.3044 15.8393 14.7677 14.2423C16.2309 12.6453 17.0293 10.55 16.9998 8.38419C16.9703 6.21841 16.1151 4.14559 14.6089 2.58907C13.1026 1.03255 11.059 0.109764 8.89539 0.00917161C6.73174 -0.0914209 4.61131 0.63777 2.96715 2.04782C1.323 3.45787 0.279162 5.4424 0.0488281 7.5961L1.30096 7.73001C1.49717 5.89538 2.38636 4.20486 3.78694 3.00371C5.18751 1.80256 6.9938 1.1814 8.8369 1.26708C10.68 1.35277 12.4208 2.13885 13.7039 3.46477C14.987 4.79069 15.7155 6.55642 15.7407 8.40135C15.7658 10.2463 15.0857 12.0312 13.8392 13.3916C12.5927 14.752 10.8739 15.5852 9.03386 15.7211C7.19377 15.8569 5.37123 15.2852 3.93844 14.1227C2.50566 12.9601 1.57074 11.2945 1.32461 9.46587L0.0765948 9.63385Z" fill="white"/>
</g>
</g>
<defs>
<clipPath id="clip0_19_61158">
<rect width="17" height="17" fill="white"/>
</clipPath>
</defs>
</svg>
