<svg width="18" height="18" viewBox="0 0 18 18" fill="none" xmlns="http://www.w3.org/2000/svg">
<path d="M5.18596 10.5388C5.06615 10.4207 4.99926 10.2609 5.00001 10.0947C5.00076 9.92837 5.06909 9.76918 5.18996 9.65212C5.31084 9.53506 5.47436 9.4697 5.64456 9.47043C5.81475 9.47117 5.97768 9.53793 6.09749 9.65603L8.36033 11.8669V4.62498C8.36033 4.45922 8.42772 4.30026 8.54768 4.18305C8.66765 4.06585 8.83035 4 9 4C9.16965 4 9.33235 4.06585 9.45232 4.18305C9.57228 4.30026 9.63967 4.45922 9.63967 4.62498V11.8669L11.9025 9.65603C11.9618 9.59755 12.0324 9.55106 12.1101 9.51922C12.1878 9.48737 12.2712 9.4708 12.3554 9.47043C12.4397 9.47007 12.5232 9.48593 12.6012 9.5171C12.6792 9.54828 12.7502 9.59416 12.81 9.65212C12.8699 9.71008 12.9175 9.779 12.9501 9.85493C12.9827 9.93086 12.9996 10.0123 13 10.0947C13.0004 10.177 12.9841 10.2586 12.9522 10.3348C12.9203 10.411 12.8734 10.4803 12.814 10.5388L9.45577 13.8199C9.3335 13.9354 9.17008 14 9 14C8.82992 14 8.6665 13.9354 8.54423 13.8199L5.18596 10.5388Z" fill="white"/>
<path fill-rule="evenodd" clip-rule="evenodd" d="M8.07227 0.0467463C6.57473 0.200099 5.18593 0.720621 3.99738 1.51682L4.81259 2.53229C5.77293 1.90921 6.88078 1.49423 8.07227 1.35121V0.0467463ZM9.07227 1.29625C13.2936 1.33505 16.7036 4.76905 16.7036 8.99951C16.7036 13.2541 13.2546 16.7031 9 16.7031C5.08431 16.7031 1.85097 13.7817 1.36072 9.99951H0.0549288C0.552373 14.4995 4.36745 17.9995 9 17.9995C13.9706 17.9995 18 13.9701 18 8.99951C18 4.05306 14.0096 0.0386252 9.07227 -0.000204202V1.29625ZM1.08662 4.7089C1.62473 3.71853 2.34334 2.84045 3.1983 2.11883L4.01018 3.13015C3.32231 3.71552 2.73864 4.41966 2.29088 5.21087L1.08662 4.7089ZM1.85552 6.1128L0.658529 5.61385C0.233908 6.65898 0 7.80193 0 8.99951H1.29641C1.29641 7.97873 1.49495 7.00432 1.85552 6.1128Z" fill="white"/>
</svg>
