<svg width="14" height="11" viewBox="0 0 14 11" fill="none" xmlns="http://www.w3.org/2000/svg">
<path d="M13 5.71067C13 7.04304 10 9.56782 7 9.56782C4 9.56782 1 7.04304 1 5.71067C1 4.37831 4 1.85353 7 1.85353C10 1.85353 13 4.37831 13 5.71067Z" stroke="#7A7A7A"/>
<path d="M6.99971 7.36371C7.99382 7.36371 8.79971 6.62361 8.79971 5.71065C8.79971 4.79769 7.99382 4.05759 6.99971 4.05759C6.00559 4.05759 5.19971 4.79769 5.19971 5.71065C5.19971 6.62361 6.00559 7.36371 6.99971 7.36371Z" stroke="#7A7A7A"/>
<rect x="1.47168" y="9.79005" width="13.7143" height="0.857143" rx="0.428571" transform="rotate(-40 1.47168 9.79005)" fill="#7A7A7A"/>
</svg>
