<svg width="18" height="18" viewBox="0 0 18 18" fill="none" xmlns="http://www.w3.org/2000/svg">
<g clip-path="url(#clip0_1_36)">
<path d="M6.00085 9C6.00085 7.34321 7.34357 5.99976 9.00037 5.99976C10.6572 5.99976 12.0006 7.34321 12.0006 9C12.0006 10.6568 10.6572 12.0002 9.00037 12.0002C7.34357 12.0002 6.00085 10.6568 6.00085 9ZM4.37897 9C4.37897 11.5524 6.44797 13.6214 9.00037 13.6214C11.5528 13.6214 13.6218 11.5524 13.6218 9C13.6218 6.4476 11.5528 4.37861 9.00037 4.37861C6.44797 4.37861 4.37897 6.4476 4.37897 9ZM12.7247 4.19537C12.7246 4.40897 12.7879 4.6178 12.9065 4.79546C13.0251 4.97311 13.1937 5.1116 13.391 5.19342C13.5883 5.27525 13.8055 5.29672 14.015 5.25513C14.2245 5.21354 14.417 5.11076 14.5681 4.95978C14.7192 4.8088 14.8221 4.6164 14.8639 4.40692C14.9056 4.19744 14.8843 3.98028 14.8027 3.7829C14.721 3.58552 14.5826 3.4168 14.4051 3.29805C14.2275 3.17931 14.0187 3.11589 13.8051 3.1158H13.8047C13.5184 3.11593 13.2438 3.2297 13.0413 3.43212C12.8388 3.63454 12.725 3.90905 12.7247 4.19537ZM5.36437 16.3258C4.4869 16.2858 4.00997 16.1397 3.69303 16.0162C3.27284 15.8526 2.97303 15.6578 2.65781 15.343C2.3426 15.0282 2.14748 14.7287 1.98461 14.3085C1.86106 13.9917 1.7149 13.5146 1.67501 12.6372C1.63138 11.6885 1.62267 11.4035 1.62267 9.00007C1.62267 6.59664 1.6321 6.31246 1.67501 5.36299C1.71497 4.48553 1.86221 4.00939 1.98461 3.69166C2.1482 3.27146 2.34303 2.97166 2.65781 2.65644C2.9726 2.34122 3.27212 2.1461 3.69303 1.98324C4.00983 1.85969 4.4869 1.71353 5.36437 1.67364C6.31304 1.63001 6.59801 1.6213 9.00037 1.6213C11.4027 1.6213 11.688 1.63073 12.6374 1.67364C13.5149 1.7136 13.991 1.86084 14.3088 1.98324C14.729 2.1461 15.0288 2.34166 15.344 2.65644C15.6592 2.97122 15.8536 3.27146 16.0172 3.69166C16.1408 4.00846 16.2869 4.48553 16.3268 5.36299C16.3704 6.31246 16.3791 6.59664 16.3791 9.00007C16.3791 11.4035 16.3704 11.6877 16.3268 12.6372C16.2868 13.5146 16.14 13.9915 16.0172 14.3085C15.8536 14.7287 15.6588 15.0285 15.344 15.343C15.0292 15.6575 14.729 15.8526 14.3088 16.0162C13.992 16.1397 13.5149 16.2859 12.6374 16.3258C11.6888 16.3694 11.4038 16.3781 9.00037 16.3781C6.59693 16.3781 6.31275 16.3694 5.36437 16.3258ZM5.28985 0.054504C4.33174 0.098136 3.67705 0.250056 3.10529 0.472536C2.51317 0.702288 2.0119 1.01052 1.511 1.51063C1.01009 2.01074 0.702654 2.5128 0.472902 3.10493C0.250422 3.67704 0.0985022 4.33138 0.0548702 5.28948C0.0105182 6.2491 0.000366211 6.55589 0.000366211 9C0.000366211 11.4441 0.0105182 11.7509 0.0548702 12.7105C0.0985022 13.6687 0.250422 14.323 0.472902 14.8951C0.702654 15.4868 1.01017 15.9895 1.511 16.4894C2.01183 16.9893 2.51317 17.2971 3.10529 17.5275C3.67813 17.7499 4.33174 17.9019 5.28985 17.9455C6.24997 17.9891 6.55625 18 9.00037 18C11.4445 18 11.7513 17.9898 12.7109 17.9455C13.6691 17.9019 14.3233 17.7499 14.8954 17.5275C15.4872 17.2971 15.9888 16.9895 16.4897 16.4894C16.9906 15.9893 17.2974 15.4868 17.5278 14.8951C17.7503 14.323 17.9029 13.6686 17.9459 12.7105C17.9895 11.7502 17.9996 11.4441 17.9996 9C17.9996 6.55589 17.9895 6.2491 17.9459 5.28948C17.9022 4.3313 17.7503 3.67668 17.5278 3.10493C17.2974 2.51316 16.9898 2.01154 16.4897 1.51063C15.9896 1.00973 15.4872 0.702288 14.8962 0.472536C14.3233 0.250056 13.669 0.097416 12.7116 0.054504C11.752 0.010872 11.4452 0 9.00109 0C6.55697 0 6.24997 0.010152 5.28985 0.054504Z" fill="white"/>
</g>
<defs>
<clipPath id="clip0_1_36">
<rect width="18" height="18" fill="white"/>
</clipPath>
</defs>
</svg>
