<svg width="18" height="18" viewBox="0 0 18 18" fill="none" xmlns="http://www.w3.org/2000/svg">
<g clip-path="url(#clip0_21_1642)">
<path d="M17 8C17.5523 8 18 8.44772 18 9C18 9.55228 17.5523 10 17 10V8ZM0.292893 9.70711C-0.0976311 9.31658 -0.0976311 8.68342 0.292893 8.29289L6.65685 1.92893C7.04738 1.53841 7.68054 1.53841 8.07107 1.92893C8.46159 2.31946 8.46159 2.95262 8.07107 3.34315L2.41421 9L8.07107 14.6569C8.46159 15.0474 8.46159 15.6805 8.07107 16.0711C7.68054 16.4616 7.04738 16.4616 6.65685 16.0711L0.292893 9.70711ZM17 10H1V8H17V10Z" fill="white"/>
</g>
<defs>
<clipPath id="clip0_21_1642">
<rect width="18" height="18" fill="white" transform="matrix(-1 0 0 1 18 0)"/>
</clipPath>
</defs>
</svg>
