<svg width="18" height="17" viewBox="0 0 18 17" fill="none" xmlns="http://www.w3.org/2000/svg">
<path d="M11.0542 7.36757H10.4951C10.5156 7.2015 10.528 7.02513 10.528 6.83952C10.528 5.96804 9.58037 5.25537 8.42305 5.25537C7.26572 5.25537 6.3181 5.96804 6.3181 6.83952C6.3181 7.02513 6.33046 7.2015 6.35099 7.36757H5.79186C5.50098 7.36757 5.26562 7.60374 5.26562 7.89562V11.0639C5.26562 11.3558 5.50098 11.592 5.79186 11.592H11.0542C11.3451 11.592 11.5805 11.3558 11.5805 11.0639V7.89562C11.5805 7.60374 11.3451 7.36757 11.0542 7.36757ZM7.37057 7.36757C7.05503 6.73431 7.84438 6.10005 8.42305 6.10005C9.00171 6.10005 9.79106 6.73431 9.47552 7.36757H7.37057Z" fill="white"/>
<path d="M15.9814 12.0658L18 8.423H16.7378C16.6854 3.64784 13.0131 0.00614385 8.39822 5.26329e-06C3.75359 -0.00514323 -0.00617567 3.76751 7.61581e-06 8.42822C0.00513842 13.0899 3.77306 16.8708 8.41776 16.875C11.0407 16.8812 13.3779 15.6786 14.9166 13.7974L13.9114 12.1153C12.7314 13.8986 10.7118 15.0691 8.41473 15.066C4.766 15.064 1.80493 12.0926 1.80184 8.43033C1.79776 4.76803 4.75166 1.80495 8.40032 1.80911C12.0326 1.81531 14.9176 4.83094 14.9485 8.42313L13.6956 8.42109L15.9814 12.0658Z" fill="white"/>
</svg>
