<svg width="18" height="18" viewBox="0 0 18 18" fill="none" xmlns="http://www.w3.org/2000/svg">
<mask id="mask0_141_16" style="mask-type:luminance" maskUnits="userSpaceOnUse" x="0" y="0" width="18" height="18">
<path d="M18 0H0V18H18V0Z" fill="white"/>
</mask>
<g mask="url(#mask0_141_16)">
<path d="M11.7761 18C11.5507 17.8979 11.3006 17.8274 11.0999 17.6866C10.7195 17.4224 10.5223 17.035 10.5047 16.5666C10.4977 16.3025 10.5047 16.0419 10.5047 15.7496C10.4272 15.7496 10.3674 15.7496 10.304 15.7496C9.57143 15.7496 8.8389 15.7496 8.10636 15.7496C6.90542 15.746 6.00736 14.855 6.00031 13.6541C5.99679 13.3019 5.99679 12.9497 6.00031 12.6011C6.00383 12.2524 6.23627 12.0059 6.55324 11.9988C6.86668 11.9953 7.11673 12.2489 7.12025 12.5905C7.12729 12.9427 7.12025 13.2949 7.12377 13.6435C7.12729 14.2317 7.51822 14.6226 8.10636 14.6226C8.84594 14.6261 9.582 14.6226 10.3216 14.6226C10.3744 14.6226 10.4237 14.6191 10.4977 14.6155C10.4977 14.5345 10.4977 14.4606 10.4977 14.3866C10.4977 10.6324 10.4977 6.87458 10.4977 3.12033C10.4977 2.29622 10.8639 1.7926 11.6458 1.53551C11.917 1.44394 12.1881 1.35238 12.4593 1.26081C12.5579 1.22911 12.6565 1.1939 12.7516 1.1305C12.7059 1.12698 12.6565 1.12346 12.6108 1.12346C11.1175 1.12346 9.62074 1.12346 8.12749 1.12346C7.51469 1.12346 7.12729 1.50734 7.12377 2.11661C7.12025 2.46879 7.12729 2.82097 7.12025 3.16963C7.11673 3.43377 6.95825 3.64508 6.72933 3.71904C6.50393 3.78947 6.26093 3.71904 6.11653 3.52534C6.06723 3.45842 6.01088 3.37038 6.01088 3.28938C6.00736 2.76463 5.95805 2.22579 6.03553 1.7116C6.19753 0.683232 7.05686 0 8.10636 0C10.8956 0 13.6849 0 16.4742 0C17.3265 0 17.9991 0.672667 17.9991 1.52847C18.0027 4.8108 17.9991 8.08961 17.9991 11.3719C17.9991 12.5553 17.9991 13.7386 17.9991 14.9219C17.9991 15.6686 17.6188 16.2074 16.9074 16.4469C15.4458 16.9399 13.9772 17.4259 12.5157 17.912C12.4241 17.9437 12.329 17.9683 12.2339 17.9965C12.0825 18 11.9311 18 11.7761 18ZM16.8757 8.25161C16.8757 6.03639 16.8757 3.82117 16.8757 1.60947C16.8757 1.2115 16.6608 1.0495 16.2875 1.17276C14.8718 1.64117 13.456 2.11661 12.0437 2.58853C11.6669 2.71532 11.6282 2.76815 11.6282 3.16963C11.6282 7.06124 11.6282 10.9493 11.6282 14.8409C11.6282 15.3868 11.6247 15.9292 11.6317 16.4751C11.6352 16.7498 11.8677 16.9223 12.1353 16.8519C12.1741 16.8413 12.2128 16.8272 12.2515 16.8167C13.6673 16.3447 15.0831 15.8728 16.4953 15.4009C16.8052 15.2988 16.8722 15.2037 16.8722 14.8761C16.8757 12.668 16.8757 10.4598 16.8757 8.25161Z" fill="white"/>
<path d="M0 7.73384C0.137351 7.41336 0.380356 7.30418 0.725494 7.3077C2.5181 7.31827 4.3107 7.31122 6.10331 7.31122C6.1667 7.31122 6.22657 7.31122 6.32166 7.31122C6.25827 7.24431 6.21953 7.19853 6.18079 7.15979C5.6173 6.59629 5.05381 6.03633 4.49032 5.46931C4.30718 5.28618 4.26492 5.03613 4.36353 4.8213C4.46214 4.60999 4.69106 4.46207 4.91998 4.50786C5.05381 4.53251 5.20172 4.60295 5.30033 4.69804C6.23361 5.61371 7.15633 6.53995 8.07904 7.46266C8.32205 7.70567 8.32205 8.0332 8.08257 8.2762C7.15633 9.20596 6.22657 10.1322 5.29681 11.0584C5.05028 11.3049 4.70867 11.3084 4.47975 11.0795C4.25083 10.8506 4.2614 10.5019 4.51145 10.2519C5.06437 9.69549 5.62082 9.14257 6.17726 8.58612C6.216 8.54738 6.25474 8.50512 6.32166 8.43468C6.22657 8.43468 6.1667 8.43468 6.10683 8.43468C4.31422 8.43468 2.52162 8.42764 0.729016 8.4382C0.383878 8.44173 0.140873 8.33255 0.00352182 8.01206C0 7.9205 0 7.82893 0 7.73384Z" fill="white"/>
</g>
</svg>
