<svg width="24" height="24" viewBox="0 0 24 24" fill="none" xmlns="http://www.w3.org/2000/svg">
<g clip-path="url(#clip0_21_386)">
<path d="M12.5605 0C12.9605 0.1 13.4605 0.1 13.8605 0.2C18.5605 1 22.4605 4.8 23.4605 9.4C24.6605 15.2 21.6605 21 16.0605 23.2C10.2605 25.5 3.56049 22.8 0.860486 17.3C0.560486 16.7 0.760486 16 1.36049 15.7C1.96049 15.4 2.66049 15.6 2.96049 16.3C4.06049 18.4 5.66049 20 7.86049 20.9C13.3605 23.3 19.7605 20.1 21.0605 14.2C22.2605 8.9 18.8605 3.7 13.6605 2.6C9.46049 1.7 5.06049 3.8 3.16049 7.6C3.16049 7.7 3.06049 7.8 3.06049 7.9C2.76049 8.5 2.06049 8.7 1.46049 8.4C0.860486 8.1 0.660486 7.4 0.960486 6.8C1.86049 5 3.06049 3.5 4.66049 2.3C6.56049 1 8.56049 0.2 10.8605 0C10.9605 0 10.9605 0 11.0605 0C11.5605 0 12.0605 0 12.5605 0Z" fill="white"/>
<path d="M14.1622 10.8C14.0622 10.7 14.0622 10.6 13.9622 10.6C13.4622 10.1 12.9622 9.6 12.4622 9.1C11.9622 8.6 11.9622 7.9 12.4622 7.4C12.8622 7 13.6622 7 14.0622 7.4C15.0622 8.4 16.0622 9.4 17.0622 10.4C17.9622 11.3 17.9622 12.7 17.0622 13.6C16.0622 14.6 15.1622 15.5 14.1622 16.5C13.6622 17 12.9622 17 12.4622 16.5C11.9622 16 11.9622 15.3 12.4622 14.8C12.9622 14.3 13.4622 13.8 13.9622 13.3C14.0622 13.2 14.0622 13.2 14.1622 13.1C14.0622 13.1 13.9622 13.1 13.8622 13.1C11.7622 13.1 9.66222 13.1 7.56222 13.1C6.66222 13.1 6.16222 12.3 6.46222 11.5C6.66222 11 7.06222 10.8 7.56222 10.8C9.46222 10.8 11.4622 10.8 13.3622 10.8C13.5622 10.8 13.8622 10.8 14.1622 10.8Z" fill="white"/>
</g>
<defs>
<clipPath id="clip0_21_386">
<rect width="22.9" height="24" fill="white" transform="translate(0.859375)"/>
</clipPath>
</defs>
</svg>
