<svg width="18" height="18" viewBox="0 0 18 18" fill="none" xmlns="http://www.w3.org/2000/svg">
<path fill-rule="evenodd" clip-rule="evenodd" d="M2.4375 9C2.4375 8.68935 2.68934 8.4375 3 8.4375H14.9997C15.3103 8.4375 15.5622 8.68935 15.5622 9C15.5622 9.31065 15.3103 9.5625 14.9997 9.5625H3C2.68934 9.5625 2.4375 9.31065 2.4375 9ZM4.8998 14.25C4.8998 13.9393 5.15165 13.6875 5.4623 13.6875H15C15.3106 13.6875 15.5625 13.9393 15.5625 14.25C15.5625 14.5606 15.3106 14.8125 15 14.8125H5.4623C5.15165 14.8125 4.8998 14.5606 4.8998 14.25ZM9.16642 3.75C9.16642 3.43934 9.41827 3.1875 9.72892 3.1875H15C15.3106 3.1875 15.5625 3.43934 15.5625 3.75C15.5625 4.06066 15.3106 4.3125 15 4.3125H9.72892C9.41827 4.3125 9.16642 4.06066 9.16642 3.75Z" fill="white" stroke="white"/>
</svg>
