<svg width="18" height="18" viewBox="0 0 18 18" fill="none" xmlns="http://www.w3.org/2000/svg">
<path d="M9.9628 3H1.8148C1.3648 3 1 3.3648 1 3.8148C1 4.2648 1.3648 4.6296 1.8148 4.6296H9.9628C10.4128 4.6296 10.7776 4.2648 10.7776 3.8148C10.7776 3.3648 10.4128 3 9.9628 3Z" fill="#E6384B"/>
<path d="M16.1855 12.7776H8.03746C7.58746 12.7776 7.22266 13.1424 7.22266 13.5924C7.22266 14.0424 7.58746 14.4072 8.03746 14.4072H16.1855C16.6355 14.4072 17.0003 14.0424 17.0003 13.5924C17.0003 13.1424 16.6355 12.7776 16.1855 12.7776Z" fill="#E6384B"/>
<path d="M16.1849 7.88879H1.8148C1.3648 7.88879 1 8.25359 1 8.70359C1 9.1536 1.3648 9.51839 1.8148 9.51839H16.1849C16.6349 9.51839 16.9997 9.1536 16.9997 8.70359C16.9997 8.25359 16.6349 7.88879 16.1849 7.88879Z" fill="#E6384B"/>
</svg>
