<svg width="18" height="18" viewBox="0 0 18 18" fill="none" xmlns="http://www.w3.org/2000/svg">
<g clip-path="url(#clip0_17_61153)">
<path d="M2.85273 13.4425C2.25736 13.4077 1.71849 13.26 1.24481 12.9253C0.432158 12.3474 0.00627716 11.5651 0.00193143 10.5656C-0.00241429 8.3493 0.00193143 6.13297 0.00193143 3.91665C0.00193143 2.26528 1.23612 1.00936 2.89619 1.00502C6.96813 0.996327 11.0401 1.00067 15.1077 1.00502C15.3423 1.00502 15.5857 1.03544 15.816 1.09193C17.1067 1.40048 17.9976 2.52168 17.9976 3.85147C18.0019 6.08083 18.0019 8.31453 17.9976 10.5439C17.9976 12.1735 16.7373 13.4294 15.1033 13.4338C13.3737 13.4381 11.6398 13.4381 9.91019 13.4294C9.7407 13.4294 9.61033 13.4773 9.47562 13.5772C7.79817 14.8548 6.12071 16.1281 4.43892 17.3971C4.3042 17.5014 4.14775 17.6013 3.98696 17.6491C3.40898 17.823 2.87446 17.4188 2.87011 16.8191C2.86142 15.7848 2.85707 14.7462 2.85273 13.7119C2.85273 13.625 2.85273 13.5381 2.85273 13.4425ZM4.16948 15.963C4.2564 15.9022 4.29986 15.8717 4.33897 15.8413C5.85563 14.6897 7.37663 13.5424 8.88894 12.3865C9.12796 12.204 9.36697 12.1214 9.66683 12.1214C11.479 12.1301 13.2868 12.1301 15.099 12.1257C16.029 12.1214 16.6982 11.4478 16.6982 10.5178C16.6982 8.31018 16.6982 6.09821 16.6982 3.89058C16.6982 3.43862 16.5505 3.05185 16.2245 2.74331C15.8856 2.42607 15.4727 2.30439 15.0121 2.30439C12.8609 2.30874 10.7098 2.30439 8.55867 2.30439C6.65958 2.30439 4.76485 2.30004 2.86577 2.30874C1.97055 2.31308 1.31 2.99536 1.31 3.89058C1.30565 6.1069 1.31 8.32322 1.31 10.5395C1.31 11.3522 1.82279 11.9649 2.62675 12.0997C2.87446 12.1388 3.13085 12.1257 3.38291 12.1301C3.8957 12.1344 4.14341 12.3734 4.14775 12.8862C4.15645 13.7032 4.16079 14.5246 4.16514 15.3416C4.16948 15.5328 4.16948 15.724 4.16948 15.963Z" fill="white"/>
<path d="M8.99376 9.2619C7.42061 9.2619 5.8518 9.2619 4.27865 9.2619C4.19173 9.2619 4.10482 9.26625 4.0179 9.24887C3.70066 9.18368 3.46599 8.88382 3.48772 8.57093C3.50945 8.24066 3.77889 7.97991 4.11351 7.95818C4.17 7.95384 4.23084 7.95818 4.28734 7.95818C7.4293 7.95818 10.5756 7.95818 13.7176 7.95818C13.8132 7.95818 13.9088 7.95384 14 7.97557C14.3173 8.0451 14.5433 8.3493 14.5172 8.65785C14.4868 9.0055 14.2086 9.25756 13.8392 9.25756C12.2661 9.2619 10.6973 9.25756 9.12413 9.25756C9.08067 9.2619 9.03722 9.2619 8.99376 9.2619Z" fill="white"/>
<path d="M6.91096 6.47629C6.00705 6.47629 5.0988 6.48064 4.19488 6.47629C3.69078 6.47194 3.3692 6.04172 3.52999 5.6028C3.62559 5.33771 3.86026 5.17692 4.17316 5.17692C5.0988 5.17692 6.02878 5.17692 6.95442 5.17692C7.8366 5.17692 8.72313 5.17692 9.60531 5.17692C10.0442 5.17692 10.3441 5.44201 10.3484 5.82443C10.3484 6.20686 10.0442 6.48064 9.60966 6.48064C8.70575 6.48064 7.80618 6.47629 6.91096 6.47629Z" fill="white"/>
</g>
<defs>
<clipPath id="clip0_17_61153">
<rect width="18.0008" height="18" fill="white"/>
</clipPath>
</defs>
</svg>
