<svg width="17" height="17" viewBox="0 0 17 17" fill="none" xmlns="http://www.w3.org/2000/svg">
<g clip-path="url(#clip0_19_61165)">
<path d="M12.6875 7.52937C12.6875 9.85406 10.8108 11.7353 8.5 11.7353C6.18915 11.7353 4.3125 9.85406 4.3125 7.52937C4.3125 5.20468 6.18915 3.32349 8.5 3.32349C10.8108 3.32349 12.6875 5.20468 12.6875 7.52937Z" stroke="white"/>
<path d="M5.6875 10.8235V15.346C5.6875 15.6026 5.98869 15.7408 6.18318 15.5734L8.30432 13.7482C8.41682 13.6514 8.58318 13.6514 8.69568 13.7482L10.8168 15.5734C11.0113 15.7408 11.3125 15.6026 11.3125 15.346V10.8235" stroke="white"/>
<path d="M12.1883 13.5438C12.3227 13.763 12.6107 13.8324 12.8206 13.6839C14.0234 12.8329 14.9533 11.6431 15.4894 10.26C16.082 8.73135 16.1611 7.05027 15.7147 5.47236C15.2683 3.89446 14.3209 2.50606 13.0164 1.51828C11.712 0.530509 10.1219 -0.00260465 8.48805 9.56876e-06C6.85415 0.00262379 5.2658 0.540822 3.96451 1.53277C2.66323 2.52471 1.7202 3.91614 1.27883 5.49546C0.837459 7.07479 0.921888 8.75561 1.51928 10.2823C2.05979 11.6637 2.99346 12.8505 4.19894 13.6977C4.40936 13.8456 4.6971 13.7752 4.83086 13.5555C4.96395 13.3369 4.89404 13.0532 4.68587 12.9043C3.65075 12.164 2.84866 11.136 2.38157 9.94229C1.85797 8.60414 1.78397 7.13094 2.17082 5.7467C2.55767 4.36246 3.38421 3.14291 4.52476 2.2735C5.6653 1.40408 7.05745 0.932365 8.48952 0.930074C9.92159 0.927782 11.3152 1.39504 12.4585 2.2608C13.6018 3.12657 14.4322 4.34346 14.8235 5.72646C15.2147 7.10945 15.1454 8.58288 14.6261 9.9227C14.1628 11.1179 13.3639 12.1485 12.3312 12.8921C12.1235 13.0416 12.0545 13.3256 12.1883 13.5438Z" fill="white"/>
</g>
<defs>
<clipPath id="clip0_19_61165">
<rect width="17" height="17" fill="white"/>
</clipPath>
</defs>
</svg>
