<svg width="18" height="18" viewBox="0 0 18 18" fill="none" xmlns="http://www.w3.org/2000/svg">
<g clip-path="url(#clip0_21_1641)">
<path d="M1 8C0.447715 8 0 8.44772 0 9C0 9.55228 0.447715 10 1 10V8ZM17.7071 9.70711C18.0976 9.31658 18.0976 8.68342 17.7071 8.29289L11.3431 1.92893C10.9526 1.53841 10.3195 1.53841 9.92893 1.92893C9.53841 2.31946 9.53841 2.95262 9.92893 3.34315L15.5858 9L9.92893 14.6569C9.53841 15.0474 9.53841 15.6805 9.92893 16.0711C10.3195 16.4616 10.9526 16.4616 11.3431 16.0711L17.7071 9.70711ZM1 10H17V8H1V10Z" fill="white"/>
</g>
<defs>
<clipPath id="clip0_21_1641">
<rect width="18" height="18" fill="white"/>
</clipPath>
</defs>
</svg>
