<svg width="18" height="18" viewBox="0 0 18 18" fill="none" xmlns="http://www.w3.org/2000/svg">
<g clip-path="url(#clip0_20_8)">
<mask id="mask0_20_8" style="mask-type:luminance" maskUnits="userSpaceOnUse" x="0" y="0" width="18" height="18">
<path d="M18 0H0V18H18V0Z" fill="white"/>
</mask>
<g mask="url(#mask0_20_8)">
<path fill-rule="evenodd" clip-rule="evenodd" d="M2.11767 7.41168C2.11767 6.00761 2.67545 4.66105 3.66832 3.66822C4.66117 2.67538 6.00778 2.11762 7.41188 2.11762C8.81599 2.11762 10.1626 2.67538 11.1554 3.66822C12.1483 4.66105 12.7061 6.00761 12.7061 7.41168C12.7061 8.81575 12.1483 10.1623 11.1554 11.1551C10.1626 12.148 8.81599 12.7057 7.41188 12.7057C6.00778 12.7057 4.66117 12.148 3.66832 11.1551C2.67545 10.1623 2.11767 8.81575 2.11767 7.41168ZM7.41188 2.33554e-07C6.2379 2.23388e-06 5.08072 0.278864 4.03561 0.813624C2.9905 1.34839 2.08738 2.12374 1.40059 3.07586C0.713821 4.02796 0.263038 5.12959 0.0853702 6.29002C-0.0922972 7.45044 0.00823323 8.63647 0.378683 9.75043C0.749133 10.8644 1.37891 11.8745 2.21614 12.6974C3.05337 13.5203 4.07412 14.1326 5.19433 14.4839C6.31453 14.8351 7.50215 14.9153 8.65938 14.7176C9.81661 14.52 10.9103 14.0504 11.8506 13.3474L16.1918 17.6896C16.3903 17.8882 16.6597 17.9999 16.9405 18C17.2214 18.0001 17.4908 17.8886 17.6895 17.6901C17.8882 17.4916 17.9999 17.2222 18 16.9414C18.0001 16.6605 17.8886 16.391 17.6901 16.1924L13.3488 11.8513C14.1729 10.7496 14.6742 9.44027 14.7964 8.06991C14.9186 6.69953 14.6569 5.3222 14.0407 4.0921C13.4244 2.86201 12.478 1.8277 11.3073 1.10498C10.1365 0.382258 8.78773 -0.000345093 7.41188 2.33554e-07Z" fill="white"/>
</g>
</g>
<defs>
<clipPath id="clip0_20_8">
<rect width="18" height="18" fill="white"/>
</clipPath>
</defs>
</svg>
