<svg width="18" height="18" viewBox="0 0 18 18" fill="none" xmlns="http://www.w3.org/2000/svg">
<g clip-path="url(#clip0_375_70)">
<path d="M12.5167 5.41066L6.63671 11.2907L4.75671 9.41066C4.56973 9.22369 4.31613 9.11864 4.05171 9.11864C3.78728 9.11864 3.53369 9.22369 3.34671 9.41066C3.15973 9.59764 3.05469 9.85124 3.05469 10.1157C3.05469 10.3801 3.15973 10.6337 3.34671 10.8207L5.93671 13.4107C6.32671 13.8007 6.95671 13.8007 7.34671 13.4107L13.9367 6.82066C14.0294 6.72815 14.103 6.61826 14.1531 6.49729C14.2033 6.37631 14.2292 6.24663 14.2292 6.11566C14.2292 5.9847 14.2033 5.85501 14.1531 5.73404C14.103 5.61307 14.0294 5.50318 13.9367 5.41066C13.5467 5.02066 12.9067 5.02066 12.5167 5.41066Z" fill="white"/>
<mask id="path-2-inside-1_375_70" fill="white">
<path fill-rule="evenodd" clip-rule="evenodd" d="M10.1274 0.879856C10.1885 0.445682 9.88216 0.0377782 9.44125 0.0136321C7.78407 -0.0771218 6.13086 0.286335 4.66749 1.07134C2.96939 1.98227 1.61755 3.4122 0.812931 5.14858C0.00830734 6.88496 -0.206151 8.83509 0.201433 10.7091C0.609017 12.5831 1.61688 14.281 3.07522 15.5503C4.53356 16.8196 6.36451 17.5926 8.29592 17.7544C10.2273 17.9162 12.1561 17.4581 13.7955 16.4483C15.4349 15.4385 16.6974 13.9308 17.3954 12.1494C17.9962 10.6161 18.1511 8.95048 17.8511 7.33828C17.7704 6.90477 17.3244 6.65354 16.8983 6.76816C16.4721 6.88283 16.2282 7.32036 16.3003 7.75548C16.5128 9.03676 16.3775 10.3539 15.901 11.5698C15.3273 13.0341 14.2895 14.2734 12.9419 15.1035C11.5943 15.9336 10.0089 16.3101 8.42123 16.1771C6.8336 16.0441 5.32855 15.4087 4.12979 14.3653C2.93103 13.3219 2.10256 11.9263 1.76752 10.3859C1.43249 8.84542 1.60877 7.2424 2.27018 5.81509C2.93158 4.38777 4.04279 3.21237 5.43864 2.46358C6.6021 1.83946 7.91153 1.5395 9.2287 1.588C9.66662 1.60413 10.0668 1.31081 10.1274 0.879856ZM16.7365 6.06721C17.0909 5.9432 17.2761 5.55538 17.1201 5.21338C16.4644 3.77655 15.4297 2.53528 14.1219 1.61699C13.8189 1.40428 13.4071 1.50187 13.2129 1.81119C13.0134 2.12879 13.1196 2.54735 13.4271 2.77075C14.4635 3.52382 15.2905 4.51872 15.8322 5.66428C15.993 6.00419 16.382 6.19123 16.7365 6.06721ZM11.7114 1.89962C12.2147 1.89962 12.6227 1.50115 12.6227 1.00961C12.6227 0.518072 12.2147 0.119603 11.7114 0.119603C11.2081 0.119603 10.8 0.518072 10.8 1.00961C10.8 1.50115 11.2081 1.89962 11.7114 1.89962Z"/>
</mask>
<path fill-rule="evenodd" clip-rule="evenodd" d="M10.1274 0.879856C10.1885 0.445682 9.88216 0.0377782 9.44125 0.0136321C7.78407 -0.0771218 6.13086 0.286335 4.66749 1.07134C2.96939 1.98227 1.61755 3.4122 0.812931 5.14858C0.00830734 6.88496 -0.206151 8.83509 0.201433 10.7091C0.609017 12.5831 1.61688 14.281 3.07522 15.5503C4.53356 16.8196 6.36451 17.5926 8.29592 17.7544C10.2273 17.9162 12.1561 17.4581 13.7955 16.4483C15.4349 15.4385 16.6974 13.9308 17.3954 12.1494C17.9962 10.6161 18.1511 8.95048 17.8511 7.33828C17.7704 6.90477 17.3244 6.65354 16.8983 6.76816C16.4721 6.88283 16.2282 7.32036 16.3003 7.75548C16.5128 9.03676 16.3775 10.3539 15.901 11.5698C15.3273 13.0341 14.2895 14.2734 12.9419 15.1035C11.5943 15.9336 10.0089 16.3101 8.42123 16.1771C6.8336 16.0441 5.32855 15.4087 4.12979 14.3653C2.93103 13.3219 2.10256 11.9263 1.76752 10.3859C1.43249 8.84542 1.60877 7.2424 2.27018 5.81509C2.93158 4.38777 4.04279 3.21237 5.43864 2.46358C6.6021 1.83946 7.91153 1.5395 9.2287 1.588C9.66662 1.60413 10.0668 1.31081 10.1274 0.879856ZM16.7365 6.06721C17.0909 5.9432 17.2761 5.55538 17.1201 5.21338C16.4644 3.77655 15.4297 2.53528 14.1219 1.61699C13.8189 1.40428 13.4071 1.50187 13.2129 1.81119C13.0134 2.12879 13.1196 2.54735 13.4271 2.77075C14.4635 3.52382 15.2905 4.51872 15.8322 5.66428C15.993 6.00419 16.382 6.19123 16.7365 6.06721ZM11.7114 1.89962C12.2147 1.89962 12.6227 1.50115 12.6227 1.00961C12.6227 0.518072 12.2147 0.119603 11.7114 0.119603C11.2081 0.119603 10.8 0.518072 10.8 1.00961C10.8 1.50115 11.2081 1.89962 11.7114 1.89962Z" fill="white"/>
<path d="M9.44124 0.0136326L9.45178 -0.17867L9.45178 -0.17867L9.44124 0.0136326ZM10.1274 0.879857L9.93672 0.853022L9.93672 0.853022L10.1274 0.879857ZM4.66749 1.07135L4.57645 0.901631L4.57645 0.901631L4.66749 1.07135ZM0.812931 5.14858L0.638189 5.06761L0.638189 5.06761L0.812931 5.14858ZM0.201433 10.7091L0.0132413 10.75L0.0132413 10.75L0.201433 10.7091ZM3.07522 15.5503L3.20166 15.405L3.20166 15.405L3.07522 15.5503ZM8.29592 17.7544L8.312 17.5624L8.312 17.5624L8.29592 17.7544ZM13.7955 16.4483L13.6945 16.2843L13.6945 16.2843L13.7955 16.4483ZM17.3954 12.1494L17.5747 12.2197L17.5747 12.2197L17.3954 12.1494ZM17.8511 7.33828L18.0404 7.30304L18.0404 7.30304L17.8511 7.33828ZM16.8983 6.76816L16.8483 6.58218L16.8483 6.58218L16.8983 6.76816ZM16.3003 7.75548L16.1103 7.78699L16.1103 7.78699L16.3003 7.75548ZM15.901 11.5698L16.0804 11.6401L16.0804 11.6401L15.901 11.5698ZM12.9419 15.1035L12.8409 14.9395L12.8409 14.9395L12.9419 15.1035ZM8.42123 16.1771L8.43731 15.9852L8.43731 15.9852L8.42123 16.1771ZM1.76752 10.3859L1.95571 10.3449L1.95571 10.3449L1.76752 10.3859ZM2.27018 5.81509L2.44492 5.89606L2.44492 5.89606L2.27018 5.81509ZM5.43864 2.46358L5.52968 2.6333L5.52968 2.6333L5.43864 2.46358ZM9.2287 1.588L9.23579 1.39554L9.23579 1.39554L9.2287 1.588ZM17.1201 5.21338L16.9449 5.29334L16.9449 5.29334L17.1201 5.21338ZM16.7365 6.06721L16.8001 6.249L16.8001 6.249L16.7365 6.06721ZM14.1219 1.61699L14.2325 1.45938L14.2325 1.45938L14.1219 1.61699ZM13.2129 1.81119L13.0498 1.70876L13.0498 1.70876L13.2129 1.81119ZM13.4271 2.77075L13.5403 2.61494L13.5403 2.61494L13.4271 2.77075ZM15.8322 5.66428L16.0063 5.58195L16.0063 5.58195L15.8322 5.66428ZM9.43071 0.205936C9.74911 0.223372 9.9835 0.520548 9.93672 0.853022L10.3181 0.906692C10.3935 0.370816 10.0152 -0.147815 9.45178 -0.17867L9.43071 0.205936ZM4.75853 1.24106C6.19048 0.472908 7.8085 0.117097 9.43071 0.205936L9.45178 -0.17867C7.75963 -0.271339 6.07125 0.099763 4.57645 0.901631L4.75853 1.24106ZM0.987673 5.22955C1.77462 3.53132 3.09693 2.1324 4.75853 1.24106L4.57645 0.901631C2.84184 1.83214 1.46049 3.29307 0.638189 5.06761L0.987673 5.22955ZM0.389625 10.6682C-0.00905991 8.83508 0.200737 6.92776 0.987673 5.22955L0.638189 5.06761C-0.184123 6.84216 -0.403243 8.8351 0.0132413 10.75L0.389625 10.6682ZM3.20166 15.405C1.77433 14.1627 0.788319 12.5013 0.389625 10.6682L0.0132413 10.75C0.429716 12.6649 1.45944 14.3992 2.94878 15.6955L3.20166 15.405ZM8.312 17.5624C6.42129 17.4041 4.62903 16.6473 3.20166 15.405L2.94878 15.6955C4.4381 16.9918 6.30773 17.7811 8.27985 17.9463L8.312 17.5624ZM13.6945 16.2843C12.0904 17.2724 10.2027 17.7208 8.312 17.5624L8.27985 17.9463C10.252 18.1115 12.2218 17.6438 13.8965 16.6123L13.6945 16.2843ZM17.2161 12.0792C16.5334 13.8214 15.2985 15.2963 13.6945 16.2843L13.8965 16.6123C15.5712 15.5807 16.8614 14.0403 17.5747 12.2197L17.2161 12.0792ZM17.6617 7.37352C17.9552 8.9505 17.8036 10.5796 17.2161 12.0792L17.5747 12.2197C18.1887 10.6527 18.347 8.95047 18.0404 7.30304L17.6617 7.37352ZM16.9484 6.95414C17.2774 6.86561 17.6037 7.06183 17.6617 7.37352L18.0404 7.30304C17.9371 6.7477 17.3713 6.44147 16.8483 6.58218L16.9484 6.95414ZM16.4903 7.72397C16.4322 7.37324 16.6302 7.03972 16.9484 6.95414L16.8483 6.58218C16.3139 6.72594 16.0242 7.26747 16.1103 7.78699L16.4903 7.72397ZM16.0804 11.6401C16.5695 10.3916 16.7084 9.03933 16.4903 7.72397L16.1103 7.78699C16.3171 9.0342 16.1854 10.3162 15.7217 11.4996L16.0804 11.6401ZM13.0429 15.2675C14.4258 14.4156 15.4913 13.1436 16.0804 11.6401L15.7217 11.4996C15.1633 12.9247 14.1531 14.1312 12.8409 14.9395L13.0429 15.2675ZM8.40515 16.369C10.0335 16.5054 11.66 16.1193 13.0429 15.2675L12.8409 14.9395C11.5286 15.7479 9.98421 16.1148 8.43731 15.9852L8.40515 16.369ZM4.00335 14.5106C5.23308 15.5809 6.77682 16.2326 8.40515 16.369L8.43731 15.9852C6.89038 15.8556 5.42402 15.2365 4.25623 14.22L4.00335 14.5106ZM1.57933 10.4268C1.92326 12.0081 2.77358 13.4402 4.00335 14.5106L4.25623 14.22C3.08848 13.2037 2.28186 11.8445 1.95571 10.3449L1.57933 10.4268ZM2.09543 5.73411C1.41634 7.1996 1.23539 8.84543 1.57933 10.4268L1.95571 10.3449C1.62958 8.84541 1.8012 7.2852 2.44492 5.89606L2.09543 5.73411ZM5.3476 2.29387C3.91525 3.06223 2.77452 4.26865 2.09543 5.73411L2.44492 5.89606C3.08864 4.5069 4.17034 3.3625 5.52968 2.6333L5.3476 2.29387ZM9.23579 1.39554C7.88479 1.3458 6.54145 1.65344 5.3476 2.29387L5.52968 2.6333C6.66274 2.02548 7.93826 1.73321 9.22161 1.78046L9.23579 1.39554ZM9.93672 0.853022C9.89173 1.17275 9.58931 1.40856 9.23579 1.39554L9.22161 1.78046C9.74394 1.7997 10.2419 1.44886 10.3181 0.906691L9.93672 0.853022ZM16.9449 5.29334C17.0497 5.52316 16.93 5.79546 16.6729 5.88543L16.8001 6.249C17.2518 6.09094 17.5025 5.5876 17.2953 5.13343L16.9449 5.29334ZM14.0112 1.77461C15.2913 2.67345 16.3036 3.88805 16.9449 5.29334L17.2953 5.13343C16.6252 3.66505 15.5681 2.39711 14.2325 1.45938L14.0112 1.77461ZM13.376 1.91361C13.5153 1.69178 13.8041 1.62918 14.0112 1.77461L14.2325 1.45938C13.8338 1.17939 13.2989 1.31196 13.0498 1.70876L13.376 1.91361ZM13.5403 2.61494C13.3039 2.44318 13.2373 2.13445 13.376 1.91361L13.0498 1.70876C12.7895 2.12314 12.9353 2.65153 13.3139 2.92655L13.5403 2.61494ZM16.0063 5.58195C15.4506 4.40684 14.6026 3.38679 13.5403 2.61494L13.3139 2.92655C14.3245 3.66085 15.1304 4.6306 15.6581 5.74662L16.0063 5.58195ZM16.6729 5.88543C16.4216 5.97335 16.1297 5.84286 16.0063 5.58195L15.6581 5.74662C15.8562 6.16552 16.3424 6.40912 16.8001 6.249L16.6729 5.88543ZM12.4301 1.00961C12.4301 1.39051 12.1127 1.70703 11.7114 1.70703V2.09221C12.3167 2.09221 12.8153 1.61179 12.8153 1.00961H12.4301ZM11.7114 0.312194C12.1127 0.312194 12.4301 0.628713 12.4301 1.00961H12.8153C12.8153 0.407433 12.3167 -0.072988 11.7114 -0.072988V0.312194ZM10.9926 1.00961C10.9926 0.628713 11.3101 0.312194 11.7114 0.312194V-0.072988C11.106 -0.072988 10.6074 0.407433 10.6074 1.00961H10.9926ZM11.7114 1.70703C11.3101 1.70703 10.9926 1.39051 10.9926 1.00961H10.6074C10.6074 1.61179 11.106 2.09221 11.7114 2.09221V1.70703Z" fill="white" mask="url(#path-2-inside-1_375_70)"/>
</g>
<defs>
<clipPath id="clip0_375_70">
<rect width="18" height="18" fill="white"/>
</clipPath>
</defs>
</svg>
