<svg width="16" height="16" viewBox="0 0 16 16" fill="none" xmlns="http://www.w3.org/2000/svg">
<path d="M10.25 9.5L8 8V4.25M1.25 8C1.25 8.88642 1.42459 9.76417 1.76381 10.5831C2.10303 11.4021 2.60023 12.1462 3.22703 12.773C3.85382 13.3998 4.59794 13.897 5.41689 14.2362C6.23583 14.5754 7.11358 14.75 8 14.75C8.88642 14.75 9.76417 14.5754 10.5831 14.2362C11.4021 13.897 12.1462 13.3998 12.773 12.773C13.3998 12.1462 13.897 11.4021 14.2362 10.5831C14.5754 9.76417 14.75 8.88642 14.75 8C14.75 7.11358 14.5754 6.23583 14.2362 5.41689C13.897 4.59794 13.3998 3.85382 12.773 3.22703C12.1462 2.60023 11.4021 2.10303 10.5831 1.76381C9.76417 1.42459 8.88642 1.25 8 1.25C7.11358 1.25 6.23583 1.42459 5.41689 1.76381C4.59794 2.10303 3.85382 2.60023 3.22703 3.22703C2.60023 3.85382 2.10303 4.59794 1.76381 5.41689C1.42459 6.23583 1.25 7.11358 1.25 8Z" stroke="#03A4ED" stroke-width="2" stroke-linecap="round" stroke-linejoin="round"/>
</svg>
