<svg width="18" height="18" viewBox="0 0 18 18" fill="none" xmlns="http://www.w3.org/2000/svg">
<g clip-path="url(#clip0_16_18)">
<path d="M0.00938784 4.37062C0.0375513 4.27675 0.056327 4.17817 0.0891844 4.08429C0.300411 3.44123 0.901232 3.00469 1.59593 3.00469C2.69431 3 3.79738 3 4.89576 3C8.70722 3 12.5187 3 16.3301 3C17.1328 3 17.7477 3.45062 17.9402 4.17817C17.9777 4.32838 17.9965 4.48797 17.9965 4.64756C18.0012 7.76902 18.0012 10.8905 17.9965 14.0119C17.9965 14.9789 17.3159 15.6548 16.3442 15.6548C11.4625 15.6548 6.57618 15.6548 1.6945 15.6548C0.816742 15.6548 0.23939 15.2042 0.0281635 14.3499C0.0234696 14.3264 0.00938784 14.3076 0 14.2842C0.00938784 10.9797 0.00938784 7.67514 0.00938784 4.37062ZM1.8541 4.06552C1.90573 4.12185 1.93859 4.1594 1.97145 4.19225C4.15881 6.38431 6.34618 8.58107 8.53354 10.7731C8.83395 11.0735 9.1813 11.0735 9.48641 10.7684C11.6738 8.57637 13.8611 6.37962 16.0485 4.18756C16.0814 4.1547 16.1142 4.11246 16.1518 4.06552C11.3781 4.06552 6.62781 4.06552 1.8541 4.06552ZM1.84002 14.5846C6.63251 14.5846 11.3828 14.5846 16.1705 14.5846C14.6497 13.0778 13.1524 11.5899 11.6503 10.1019C11.6174 10.1348 11.5705 10.177 11.5236 10.2239C11.087 10.6652 10.6505 11.1064 10.2093 11.5429C9.51926 12.2282 8.49599 12.2282 7.80599 11.5429C7.53843 11.2801 7.27557 11.0125 7.01271 10.745C6.7921 10.5243 6.57618 10.3084 6.36495 10.1019C4.8582 11.5899 3.36085 13.0731 1.84002 14.5846ZM1.07491 4.8541C1.07491 7.82535 1.07491 10.8295 1.07491 13.796C2.56757 12.3174 4.07901 10.8201 5.58576 9.3274C4.07432 7.83004 2.56757 6.33738 1.07491 4.8541ZM16.9357 13.8054C16.9357 10.8248 16.9357 7.82065 16.9357 4.87287C15.4524 6.34207 13.9409 7.83473 12.4295 9.33679C13.9315 10.8341 15.4383 12.3221 16.9357 13.8054Z" fill="white"/>
</g>
<defs>
<clipPath id="clip0_16_18">
<rect width="18" height="18" fill="white"/>
</clipPath>
</defs>
</svg>
