<svg width="18" height="18" viewBox="0 0 18 18" fill="none" xmlns="http://www.w3.org/2000/svg">
<g clip-path="url(#clip0_1_45)">
<path d="M9.39878 15.4349L5.70588 15.3674C4.5102 15.3439 3.31154 15.3908 2.13931 15.147C0.356065 14.7827 0.229734 12.9965 0.097542 11.4982C-0.0846053 9.3918 -0.0140906 7.24715 0.329645 5.15831C0.523695 3.98626 1.28736 3.28688 2.46834 3.21078C6.45503 2.93458 10.4682 2.96731 14.4461 3.09617C14.8662 3.10798 15.2892 3.17255 15.7034 3.24604C17.7483 3.60447 17.7981 5.62865 17.9307 7.33263C18.0629 9.05419 18.007 10.7846 17.7544 12.4944C17.5517 13.9101 17.1638 15.0973 15.5271 15.2119C13.4764 15.3618 11.4728 15.4825 9.41636 15.444C9.41645 15.4349 9.40464 15.4349 9.39878 15.4349ZM7.22771 11.8508C8.77308 10.9635 10.289 10.091 11.8255 9.20965C10.2772 8.32236 8.76424 7.44985 7.22771 6.56851V11.8508Z" fill="white"/>
</g>
<defs>
<clipPath id="clip0_1_45">
<rect width="18" height="18" fill="white"/>
</clipPath>
</defs>
</svg>
