<svg width="100" height="100" viewBox="0 0 100 100" fill="none" xmlns="http://www.w3.org/2000/svg">
<circle cx="50" cy="50" r="50" fill="#03A4ED" fill-opacity="0.06"/>
<path d="M34.7932 28.2015L33.3503 27.6768C33.3439 27.6748 33.3381 27.6714 33.3334 27.6666C33.3286 27.6619 33.3252 27.6561 33.3232 27.6497L32.7985 26.2068C32.7757 26.146 32.7349 26.0937 32.6816 26.0567C32.6282 26.0198 32.5649 26 32.5 26C32.4351 26 32.3718 26.0198 32.3184 26.0567C32.2651 26.0937 32.2243 26.146 32.2015 26.2068L31.6768 27.6497C31.6748 27.6561 31.6714 27.6619 31.6666 27.6666C31.6619 27.6714 31.6561 27.6748 31.6497 27.6768L30.2068 28.2015C30.146 28.2243 30.0937 28.2651 30.0567 28.3184C30.0198 28.3718 30 28.4351 30 28.5C30 28.5649 30.0198 28.6282 30.0567 28.6816C30.0937 28.7349 30.146 28.7757 30.2068 28.7985L31.6497 29.3232C31.6561 29.3252 31.6619 29.3286 31.6666 29.3334C31.6714 29.3381 31.6748 29.3439 31.6768 29.3503L32.2015 30.7932C32.2243 30.854 32.2651 30.9063 32.3184 30.9433C32.3718 30.9802 32.4351 31 32.5 31C32.5649 31 32.6282 30.9802 32.6816 30.9433C32.7349 30.9063 32.7757 30.854 32.7985 30.7932L33.3232 29.3503C33.3252 29.3439 33.3286 29.3381 33.3334 29.3334C33.3381 29.3286 33.3439 29.3252 33.3503 29.3232L34.7932 28.7985C34.854 28.7757 34.9063 28.7349 34.9433 28.6816C34.9802 28.6282 35 28.5649 35 28.5C35 28.4351 34.9802 28.3718 34.9433 28.3184C34.9063 28.2651 34.854 28.2243 34.7932 28.2015ZM34.7005 28.543L33.2576 29.0677C33.214 29.0835 33.1743 29.1087 33.1415 29.1415C33.1087 29.1743 33.0835 29.214 33.0677 29.2576L32.543 30.7005C32.54 30.7095 32.5342 30.7174 32.5265 30.723C32.5188 30.7286 32.5095 30.7316 32.5 30.7316C32.4905 30.7316 32.4812 30.7286 32.4735 30.723C32.4658 30.7174 32.46 30.7095 32.457 30.7005L31.9323 29.2576C31.9165 29.214 31.8913 29.1743 31.8585 29.1415C31.8257 29.1087 31.786 29.0835 31.7424 29.0677L30.2995 28.543C30.2905 28.54 30.2826 28.5342 30.277 28.5265C30.2714 28.5188 30.2684 28.5095 30.2684 28.5C30.2684 28.4905 30.2714 28.4812 30.277 28.4735C30.2826 28.4658 30.2905 28.46 30.2995 28.457L31.7424 27.9323C31.786 27.9165 31.8257 27.8913 31.8585 27.8585C31.8913 27.8257 31.9165 27.786 31.9323 27.7424L32.457 26.2995C32.46 26.2905 32.4658 26.2826 32.4735 26.277C32.4812 26.2714 32.4905 26.2684 32.5 26.2684C32.5095 26.2684 32.5188 26.2714 32.5265 26.277C32.5342 26.2826 32.54 26.2905 32.543 26.2995L33.0677 27.7424C33.0835 27.786 33.1087 27.8257 33.1415 27.8585C33.1743 27.8913 33.214 27.9165 33.2576 27.9323L34.7005 28.457C34.7095 28.46 34.7174 28.4658 34.723 28.4735C34.7286 28.4812 34.7316 28.4905 34.7316 28.5C34.7316 28.5095 34.7286 28.5188 34.723 28.5265C34.7174 28.5342 34.7095 28.54 34.7005 28.543Z" fill="#03A4ED"/>
<circle cx="29" cy="31" r="0.85" fill="#D9D9D9" stroke="#03A4ED" stroke-width="0.3"/>
<path d="M66 61.5C66.0003 61.5437 65.987 61.5865 65.9619 61.6223C65.9369 61.6581 65.9013 61.6853 65.8601 61.6999L65.0086 62.0092L64.6994 62.8609C64.6843 62.9018 64.657 62.937 64.6213 62.9618C64.5855 62.9867 64.5431 63 64.4995 63C64.456 63 64.4135 62.9867 64.3778 62.9618C64.3421 62.937 64.3148 62.9018 64.2997 62.8609L63.9905 62.0092L63.139 61.6999C63.0982 61.6848 63.063 61.6575 63.0382 61.6218C63.0133 61.586 63 61.5435 63 61.5C63 61.4565 63.0133 61.414 63.0382 61.3782C63.063 61.3425 63.0982 61.3152 63.139 61.3001L63.9905 60.9908L64.2997 60.1391C64.3148 60.0982 64.3421 60.063 64.3778 60.0382C64.4135 60.0133 64.456 60 64.4995 60C64.5431 60 64.5855 60.0133 64.6213 60.0382C64.657 60.063 64.6843 60.0982 64.6994 60.1391L65.0086 60.9908L65.8601 61.3001C65.9013 61.3147 65.9369 61.3419 65.9619 61.3777C65.987 61.4135 66.0003 61.4563 66 61.5Z" fill="#03A4ED"/>
<circle cx="69" cy="64" r="0.85" fill="#D9D9D9" stroke="#03A4ED" stroke-width="0.3"/>
<path d="M31 57.5C31.0003 57.5437 30.987 57.5865 30.9619 57.6223C30.9369 57.6581 30.9013 57.6853 30.8601 57.6999L30.0086 58.0092L29.6994 58.8609C29.6843 58.9018 29.657 58.937 29.6213 58.9618C29.5855 58.9867 29.5431 59 29.4995 59C29.456 59 29.4135 58.9867 29.3778 58.9618C29.3421 58.937 29.3148 58.9018 29.2997 58.8609L28.9905 58.0092L28.139 57.6999C28.0982 57.6848 28.063 57.6575 28.0382 57.6218C28.0133 57.586 28 57.5435 28 57.5C28 57.4565 28.0133 57.414 28.0382 57.3782C28.063 57.3425 28.0982 57.3152 28.139 57.3001L28.9905 56.9908L29.2997 56.1391C29.3148 56.0982 29.3421 56.063 29.3778 56.0382C29.4135 56.0133 29.456 56 29.4995 56C29.5431 56 29.5855 56.0133 29.6213 56.0382C29.657 56.063 29.6843 56.0982 29.6994 56.1391L30.0086 56.9908L30.8601 57.3001C30.9013 57.3147 30.9369 57.3419 30.9619 57.3777C30.987 57.4135 31.0003 57.4563 31 57.5Z" fill="#03A4ED"/>
<circle cx="39" cy="74" r="0.85" fill="#D9D9D9" stroke="#03A4ED" stroke-width="0.3"/>
<path d="M69.7932 36.2015L68.3503 35.6768C68.3439 35.6748 68.3381 35.6714 68.3334 35.6666C68.3286 35.6619 68.3252 35.6561 68.3232 35.6497L67.7985 34.2068C67.7757 34.146 67.7349 34.0937 67.6816 34.0567C67.6282 34.0198 67.5649 34 67.5 34C67.4351 34 67.3718 34.0198 67.3184 34.0567C67.2651 34.0937 67.2243 34.146 67.2015 34.2068L66.6768 35.6497C66.6748 35.6561 66.6714 35.6619 66.6666 35.6666C66.6619 35.6714 66.6561 35.6748 66.6497 35.6768L65.2068 36.2015C65.146 36.2243 65.0937 36.2651 65.0567 36.3184C65.0198 36.3718 65 36.4351 65 36.5C65 36.5649 65.0198 36.6282 65.0567 36.6816C65.0937 36.7349 65.146 36.7757 65.2068 36.7985L66.6497 37.3232C66.6561 37.3252 66.6619 37.3286 66.6666 37.3334C66.6714 37.3381 66.6748 37.3439 66.6768 37.3503L67.2015 38.7932C67.2243 38.854 67.2651 38.9063 67.3184 38.9433C67.3718 38.9802 67.4351 39 67.5 39C67.5649 39 67.6282 38.9802 67.6816 38.9433C67.7349 38.9063 67.7757 38.854 67.7985 38.7932L68.3232 37.3503C68.3252 37.3439 68.3286 37.3381 68.3334 37.3334C68.3381 37.3286 68.3439 37.3252 68.3503 37.3232L69.7932 36.7985C69.854 36.7757 69.9063 36.7349 69.9433 36.6816C69.9802 36.6282 70 36.5649 70 36.5C70 36.4351 69.9802 36.3718 69.9433 36.3184C69.9063 36.2651 69.854 36.2243 69.7932 36.2015ZM69.7005 36.543L68.2576 37.0677C68.214 37.0835 68.1743 37.1087 68.1415 37.1415C68.1087 37.1743 68.0835 37.214 68.0677 37.2576L67.543 38.7005C67.54 38.7095 67.5342 38.7174 67.5265 38.723C67.5188 38.7286 67.5095 38.7316 67.5 38.7316C67.4905 38.7316 67.4812 38.7286 67.4735 38.723C67.4658 38.7174 67.46 38.7095 67.457 38.7005L66.9323 37.2576C66.9165 37.214 66.8913 37.1743 66.8585 37.1415C66.8257 37.1087 66.786 37.0835 66.7424 37.0677L65.2995 36.543C65.2905 36.54 65.2826 36.5342 65.277 36.5265C65.2714 36.5188 65.2684 36.5095 65.2684 36.5C65.2684 36.4905 65.2714 36.4812 65.277 36.4735C65.2826 36.4658 65.2905 36.46 65.2995 36.457L66.7424 35.9323C66.786 35.9165 66.8257 35.8913 66.8585 35.8585C66.8913 35.8257 66.9165 35.786 66.9323 35.7424L67.457 34.2995C67.46 34.2905 67.4658 34.2826 67.4735 34.277C67.4812 34.2714 67.4905 34.2684 67.5 34.2684C67.5095 34.2684 67.5188 34.2714 67.5265 34.277C67.5342 34.2826 67.54 34.2905 67.543 34.2995L68.0677 35.7424C68.0835 35.786 68.1087 35.8257 68.1415 35.8585C68.1743 35.8913 68.214 35.9165 68.2576 35.9323L69.7005 36.457C69.7095 36.46 69.7174 36.4658 69.723 36.4735C69.7286 36.4812 69.7316 36.4905 69.7316 36.5C69.7316 36.5095 69.7286 36.5188 69.723 36.5265C69.7174 36.5342 69.7095 36.54 69.7005 36.543Z" fill="#03A4ED"/>
<path d="M56 21.5C56.0003 21.5437 55.987 21.5865 55.9619 21.6223C55.9369 21.6581 55.9013 21.6853 55.8601 21.6999L55.0086 22.0092L54.6994 22.8609C54.6843 22.9018 54.657 22.937 54.6213 22.9618C54.5855 22.9867 54.5431 23 54.4995 23C54.456 23 54.4135 22.9867 54.3778 22.9618C54.3421 22.937 54.3148 22.9018 54.2997 22.8609L53.9905 22.0092L53.139 21.6999C53.0982 21.6848 53.063 21.6575 53.0382 21.6218C53.0133 21.586 53 21.5435 53 21.5C53 21.4565 53.0133 21.414 53.0382 21.3782C53.063 21.3425 53.0982 21.3152 53.139 21.3001L53.9905 20.9908L54.2997 20.1391C54.3148 20.0982 54.3421 20.063 54.3778 20.0382C54.4135 20.0133 54.456 20 54.4995 20C54.5431 20 54.5855 20.0133 54.6213 20.0382C54.657 20.063 54.6843 20.0982 54.6994 20.1391L55.0086 20.9908L55.8601 21.3001C55.9013 21.3147 55.9369 21.3419 55.9619 21.3777C55.987 21.4135 56.0003 21.4563 56 21.5Z" fill="#03A4ED"/>
<path d="M45.1784 59.1389H61.0195C61.6434 59.1389 62.151 58.6312 62.151 58.0074V42.1662C62.151 42.1534 62.145 42.1428 62.1443 42.1308C62.1427 42.1134 62.1382 42.0983 62.1344 42.0817C62.1226 42.0293 62.0994 41.9802 62.0666 41.9377C62.0613 41.9309 62.062 41.9226 62.0568 41.9158L56.022 35.1267C56.0198 35.1245 56.0167 35.1245 56.0145 35.1222C55.9685 35.0741 55.9104 35.0392 55.8463 35.0211C55.8319 35.0166 55.8191 35.0151 55.804 35.0128C55.7821 35.0091 55.7618 35 55.7392 35H45.1784C44.5545 35 44.0469 35.5077 44.0469 36.1315V58.0074C44.0469 58.6312 44.5545 59.1389 45.1784 59.1389ZM56.1163 36.3691L60.9343 41.7891H56.4935C56.3275 41.7891 56.1163 41.4722 56.1163 41.2233V36.3691ZM44.8012 36.1315C44.8012 36.0315 44.841 35.9355 44.9117 35.8648C44.9824 35.7941 45.0784 35.7543 45.1784 35.7543H55.362V41.2233C55.362 41.8336 55.8561 42.5434 56.4935 42.5434H61.3967V58.0074C61.3967 58.1074 61.357 58.2033 61.2862 58.2741C61.2155 58.3448 61.1196 58.3845 61.0195 58.3845H45.1784C44.9672 58.3845 44.8012 58.2186 44.8012 58.0074V36.1315Z" fill="#03A4ED"/>
<path d="M48.1955 45.5608H58.002C58.102 45.5608 58.1979 45.521 58.2687 45.4503C58.3394 45.3796 58.3791 45.2836 58.3791 45.1836C58.3791 45.0836 58.3394 44.9876 58.2687 44.9169C58.1979 44.8462 58.102 44.8064 58.002 44.8064H48.1955C48.0955 44.8064 47.9996 44.8462 47.9288 44.9169C47.8581 44.9876 47.8184 45.0836 47.8184 45.1836C47.8184 45.2836 47.8581 45.3796 47.9288 45.4503C47.9996 45.521 48.0955 45.5608 48.1955 45.5608ZM48.1955 48.5781H58.002C58.102 48.5781 58.1979 48.5384 58.2687 48.4677C58.3394 48.3969 58.3791 48.301 58.3791 48.201C58.3791 48.1009 58.3394 48.005 58.2687 47.9343C58.1979 47.8635 58.102 47.8238 58.002 47.8238H48.1955C48.0955 47.8238 47.9996 47.8635 47.9288 47.9343C47.8581 48.005 47.8184 48.1009 47.8184 48.201C47.8184 48.301 47.8581 48.3969 47.9288 48.4677C47.9996 48.5384 48.0955 48.5781 48.1955 48.5781ZM48.1955 42.5434H52.7216C52.8216 42.5434 52.9175 42.5037 52.9883 42.4329C53.059 42.3622 53.0987 42.2663 53.0987 42.1662C53.0987 42.0662 53.059 41.9703 52.9883 41.8995C52.9175 41.8288 52.8216 41.7891 52.7216 41.7891H48.1955C48.0955 41.7891 47.9996 41.8288 47.9288 41.8995C47.8581 41.9703 47.8184 42.0662 47.8184 42.1662C47.8184 42.2663 47.8581 42.3622 47.9288 42.4329C47.9996 42.5037 48.0955 42.5434 48.1955 42.5434ZM48.1955 51.5955H58.002C58.102 51.5955 58.1979 51.5557 58.2687 51.485C58.3394 51.4143 58.3791 51.3183 58.3791 51.2183C58.3791 51.1183 58.3394 51.0223 58.2687 50.9516C58.1979 50.8809 58.102 50.8411 58.002 50.8411H48.1955C48.0955 50.8411 47.9996 50.8809 47.9288 50.9516C47.8581 51.0223 47.8184 51.1183 47.8184 51.2183C47.8184 51.3183 47.8581 51.4143 47.9288 51.485C47.9996 51.5557 48.0955 51.5955 48.1955 51.5955ZM48.1955 54.6128H58.002C58.102 54.6128 58.1979 54.5731 58.2687 54.5024C58.3394 54.4316 58.3791 54.3357 58.3791 54.2357C58.3791 54.1356 58.3394 54.0397 58.2687 53.969C58.1979 53.8982 58.102 53.8585 58.002 53.8585H48.1955C48.0955 53.8585 47.9996 53.8982 47.9288 53.969C47.8581 54.0397 47.8184 54.1356 47.8184 54.2357C47.8184 54.3357 47.8581 54.4316 47.9288 54.5024C47.9996 54.5731 48.0955 54.6128 48.1955 54.6128Z" fill="#03A4ED"/>
<path d="M58.3779 58.7615L58.3965 58.958C58.5146 60.2053 57.5968 61.3112 56.3491 61.425L41.3324 62.7943C40.0878 62.9078 38.9868 61.9908 38.8733 60.7461L37.2222 42.6391C37.1115 41.4252 37.9822 40.3417 39.1914 40.1885L44.4226 39.5258" stroke="#03A4ED" stroke-width="0.75434"/>
</svg>
